# xmcd
#
# Track frame offsets: 
#        150
#        23608
#        46719
#        68356
#        90806
#        116654
#        140133
#        157843
#        183956
#        197633
#        218802
#        243859
#        262121
#        292329
#        318798
#
# Disc length: 4689 seconds
#
# Revision: 0
# Processed by: cddbd v1.5.1PL2 Copyright (c) Steve Scherf et al.
# Submitted via: ExactAudioCopy v0.95b4
#
DISCID=c6124f0f
DTITLE=Various Artist - Dixiefrog's Roots and New 2006 [CD 2)
DYEAR=2006
DGENRE=Blues
TTITLE0=Leon Redbone - Goodby Charlie Blues
TTITLE1=Bill Wyman's Rhythm Kings - Muleskinners Blues
TTITLE2=Blind Boys Of Alabama - Listen To The Lambs
TTITLE3=Nico Wayne Toussaint - What A Woman
TTITLE4=Rob Tognoni - Roosevelt and Ira Lee
TTITLE5=Patrick Verbeke - C.C. Rider
TTITLE6=Beverly Jo Scott - Lying Still
TTITLE7=Jesus Volt - Up In Flames
TTITLE8=Little Bob - Your Eyes Don't Lie
TTITLE9=Steve Jonson - East West
TTITLE10=Van Wilks - Morning Dew
TTITLE11=Gwyn Ashton - Come On, Don't Walk, Run!
TTITLE12=Tom Principato - Tango'd Up In The Blues
TTITLE13=Amar Sundy - Najma
TTITLE14=Qayna - Jamalek
EXTD=
EXTT0=
EXTT1=
EXTT2=
EXTT3=
EXTT4=
EXTT5=
EXTT6=
EXTT7=
EXTT8=
EXTT9=
EXTT10=
EXTT11=
EXTT12=
EXTT13=
EXTT14=
PLAYORDER=
